<svg width="73" height="73" viewBox="0 0 73 73" fill="none" xmlns="http://www.w3.org/2000/svg">
<g clip-path="url(#clip0)">
<path d="M36.9137 0.510742C17.0439 0.510742 0.958801 16.5958 0.958801 36.4657C0.958801 56.3355 17.0439 72.4206 36.9137 72.4206C56.7836 72.4206 72.8687 56.3355 72.8687 36.4657C72.8687 16.5958 56.7836 0.510742 36.9137 0.510742ZM20.734 64.2835V27.95C20.734 26.0577 22.2479 24.5438 24.1403 24.5438H49.9711C51.8634 24.5438 53.3773 26.0577 53.3773 27.95V64.0942C48.5518 66.9328 42.9693 68.6359 36.9137 68.6359C31.0474 68.6359 25.5596 67.0274 20.734 64.2835ZM57.1621 61.4449V27.95C57.1621 23.9761 53.945 20.7591 49.9711 20.7591H24.1403C20.1663 20.7591 16.9493 23.9761 16.9493 27.95V61.7288C9.56907 55.7678 4.74353 46.6845 4.74353 36.4657C4.74353 18.7721 19.2201 4.29547 36.9137 4.29547C54.702 4.29547 69.084 18.7721 69.084 36.4657C69.084 46.4952 64.4477 55.484 57.1621 61.4449Z" fill="black"/>
<path d="M26.1273 40.2502C25.0865 40.2502 24.235 39.3987 24.235 38.3579V30.4099C24.235 29.3691 25.0865 28.5176 26.1273 28.5176C27.1681 28.5176 28.0197 29.3691 28.0197 30.4099V38.3579C28.0197 39.3987 27.1681 40.2502 26.1273 40.2502Z" fill="black"/>
</g>
<defs>
<clipPath id="clip0">
<rect width="71.9099" height="71.9099" fill="white" transform="translate(0.958801 0.510742)"/>
</clipPath>
</defs>
</svg>
