<svg width="77" height="78" viewBox="0 0 77 78" fill="none" xmlns="http://www.w3.org/2000/svg">
<g clip-path="url(#clip0)">
<path d="M64.4747 21.7282L61.8853 24.3341C65.122 29.3596 66.9716 35.3158 66.9716 41.6443C66.9716 59.0476 52.8225 73.2866 35.5291 73.2866C18.2357 73.2866 4.08657 59.0476 4.08657 41.6443C4.08657 24.1479 18.2357 10.0019 35.5291 10.0019C41.8176 10.0019 47.7362 11.8632 52.73 15.1205L55.4118 12.4216C49.6782 8.51287 42.8348 6.2793 35.5291 6.2793C16.2012 6.2793 0.387451 22.1005 0.387451 41.6443C0.387451 61.095 16.2012 77.0093 35.5291 77.0093C54.857 77.0093 70.6707 61.095 70.6707 41.6443C70.6707 34.2921 68.4512 27.4052 64.4747 21.7282Z" fill="#D32020"/>
<path d="M58.7413 27.4981L56.0594 30.197C57.909 33.5473 59.0187 37.5492 59.0187 41.644C59.0187 54.6732 48.4763 65.2827 35.5293 65.2827C22.5824 65.2827 12.0399 54.6732 12.0399 41.644C12.0399 28.6148 22.5824 18.0053 35.5293 18.0053C39.6908 18.0053 43.5749 19.1221 46.9041 20.9834L49.586 18.2845C45.517 15.7718 40.6156 14.2827 35.5293 14.2827C20.5479 14.2827 8.34082 26.5674 8.34082 41.644C8.34082 56.7207 20.5479 69.0054 35.5293 69.0054C50.5108 69.0054 62.7179 56.7207 62.7179 41.644C62.7179 36.4324 61.3307 31.5929 58.7413 27.4981Z" fill="#D32020"/>
<path d="M52.0825 34.1057L49.2157 36.9907C49.6781 38.4798 49.9555 39.9688 49.9555 41.644C49.9555 49.6477 43.4821 56.2553 35.4365 56.2553C27.3909 56.2553 20.9174 49.7407 20.9174 41.644C20.9174 33.6404 27.3909 27.0327 35.4365 27.0327C37.0086 27.0327 38.5807 27.3119 40.0604 27.7772L42.9272 24.8922C40.6152 23.8685 38.1183 23.3101 35.529 23.3101C25.5413 23.3101 17.3108 31.4998 17.3108 41.644C17.3108 51.6951 25.4489 59.978 35.529 59.978C45.6091 59.978 53.7471 51.7882 53.7471 41.644C53.7471 38.9451 53.1922 36.4323 52.0825 34.1057Z" fill="#D32020"/>
<path d="M76.589 6.65132L70.7629 12.5145C70.6704 12.6075 70.5779 12.6075 70.4854 12.6075H66.8788L61.6075 17.9123L59.0182 20.6112L55.9664 23.6824L53.377 26.2882L49.5854 30.1039L46.996 32.7097L36.8235 42.947C36.4535 43.3192 35.9911 43.5054 35.5288 43.5054C35.0664 43.5054 34.604 43.3192 34.2341 42.947C33.4942 42.2024 33.4942 41.0856 34.2341 40.3411L44.4066 30.1039L46.996 27.405L50.7876 23.5893L53.377 20.9834L56.4288 17.9123L59.0182 15.3064L64.1969 10.0948V6.46519C64.1969 6.37212 64.2894 6.18599 64.2894 6.18599L70.208 0.229784C70.3005 0.229784 70.3005 0.136719 70.393 0.136719C70.4854 0.136719 70.4854 0.136719 70.5779 0.136719C70.6704 0.136719 70.6704 0.136719 70.7629 0.136719C70.9478 0.229784 71.0403 0.415916 71.0403 0.602047V5.9068H76.2191C76.404 5.9068 76.589 5.99986 76.6815 6.18599C76.7739 6.37212 76.6815 6.55826 76.589 6.65132Z" fill="#D32020"/>
</g>
<defs>
<clipPath id="clip0">
<rect width="76.2943" height="76.8723" fill="white" transform="translate(0.387695 0.136719)"/>
</clipPath>
</defs>
</svg>
