<svg width="71" height="71" viewBox="0 0 71 71" fill="none" xmlns="http://www.w3.org/2000/svg">
<g clip-path="url(#clip0)">
<path d="M35.7375 0.403809C16.3246 0.403809 0.609375 16.1191 0.609375 35.532C0.609375 54.945 16.3246 70.6602 35.7375 70.6602C55.1505 70.6602 70.8657 54.945 70.8657 35.532C70.8657 16.1191 55.1505 0.403809 35.7375 0.403809ZM35.7375 66.9625C18.4508 66.9625 4.30708 52.8188 4.30708 35.532C4.30708 18.2452 18.4508 4.10152 35.7375 4.10152C53.1167 4.10152 67.168 18.2452 67.168 35.532C67.168 52.8188 53.0243 66.9625 35.7375 66.9625Z" fill="black"/>
<path d="M35.7378 11.312C22.3336 11.312 11.5178 22.1278 11.5178 35.532C11.5178 48.9362 22.3336 59.752 35.7378 59.752C49.1419 59.752 59.9577 48.9362 59.9577 35.532C59.9577 22.1278 49.0495 11.312 35.7378 11.312ZM56.1675 33.6831H45.3518C45.0744 32.3889 44.6122 31.0947 43.8727 30.0779L51.5454 22.4051C54.0414 25.5482 55.7053 29.4308 56.1675 33.6831ZM41.1919 27.397C40.0826 26.6575 38.8808 26.1953 37.5866 25.918V15.1022C41.839 15.4719 45.7215 17.2283 48.8646 19.8167L41.1919 27.397ZM33.8889 15.1022V25.918C32.5947 26.1953 31.3005 26.6575 30.2836 27.397L22.6109 19.8167C25.754 17.2283 29.6366 15.4719 33.8889 15.1022ZM20.0225 22.4051L27.6953 30.0779C26.9557 31.1872 26.4935 32.3889 26.2162 33.6831H15.308C15.6777 29.4308 17.4341 25.5482 20.0225 22.4051ZM15.308 37.3808H26.1237C26.4011 38.675 26.8633 39.9692 27.6028 40.9861L20.0225 48.6588C17.4341 45.5158 15.6777 41.6332 15.308 37.3808ZM33.8889 55.9618C29.6366 55.592 25.754 53.8356 22.6109 51.2472L30.2836 43.5745C31.393 44.314 32.5947 44.8687 33.8889 45.0536V55.9618ZM33.8889 41.3559C33.6116 41.2634 33.2418 41.0785 32.9645 40.9861C31.8552 40.4314 30.9307 39.507 30.3761 38.3977C30.1912 38.1204 30.0988 37.7506 30.0063 37.4733C29.8214 36.9186 29.729 36.2715 29.729 35.6244C29.729 34.9773 29.8214 34.3302 30.0063 33.7756C30.0988 33.4982 30.2836 33.1285 30.3761 32.8511C30.9307 31.7418 31.8552 30.8174 32.9645 30.2628C33.2418 30.0779 33.6116 29.9854 33.8889 29.893C34.4436 29.7081 35.0907 29.6157 35.7378 29.6157C36.3849 29.6157 37.0319 29.7081 37.5866 29.893C37.8639 29.9854 38.2337 30.0779 38.511 30.2628C39.6203 30.8174 40.5448 31.7418 41.0994 32.8511C41.2843 33.1285 41.3767 33.4982 41.4692 33.7756C41.6541 34.3302 41.7465 34.9773 41.7465 35.6244C41.7465 36.2715 41.6541 36.9186 41.4692 37.4733C41.3767 37.8431 41.1919 38.1204 41.0994 38.3977C40.5448 39.507 39.6203 40.4314 38.511 40.9861C38.2337 41.171 37.8639 41.2634 37.5866 41.3559C37.0319 41.5408 36.3849 41.6332 35.7378 41.6332C35.0907 41.6332 34.4436 41.5408 33.8889 41.3559ZM37.5866 55.9618V45.146C38.8808 44.8687 40.175 44.4065 41.1919 43.6669L48.8646 51.3397C45.7215 53.8356 41.839 55.592 37.5866 55.9618ZM51.453 48.6588L43.7803 40.9861C44.5198 39.8768 45.0744 38.675 45.2593 37.3808H56.0751C55.7978 41.6332 54.0414 45.5158 51.453 48.6588Z" fill="black"/>
</g>
<defs>
<clipPath id="clip0">
<rect width="70.2563" height="70.2564" fill="white" transform="translate(0.609375 0.403809)"/>
</clipPath>
</defs>
</svg>
