<svg width="73" height="73" viewBox="0 0 73 73" fill="none" xmlns="http://www.w3.org/2000/svg">
<g clip-path="url(#clip0)">
<path d="M36.1982 4.29547C53.8918 4.29547 68.3684 18.7721 68.3684 36.4657C68.3684 54.1593 53.8918 68.6359 36.1982 68.6359C18.5046 68.6359 4.02796 54.1593 4.02796 36.4657C4.02796 18.7721 18.5046 4.29547 36.1982 4.29547ZM36.1982 0.510742C16.3283 0.510742 0.243225 16.5958 0.243225 36.4657C0.243225 56.3355 16.3283 72.4206 36.1982 72.4206C56.068 72.4206 72.1531 56.3355 72.1531 36.4657C72.1531 16.5958 56.068 0.510742 36.1982 0.510742Z" fill="#D32020"/>
<path d="M52.1887 44.6974L36.1982 65.608L20.1131 44.6974C16.6122 40.8181 14.5306 35.8033 14.5306 30.2208C14.5306 18.2043 24.2763 8.55322 36.1982 8.55322C48.1201 8.55322 57.7711 18.2043 57.7711 30.1262C57.7711 35.7087 55.6895 40.8181 52.1887 44.6974Z" fill="#D32020"/>
<path d="M36.1982 39.3042C40.431 39.3042 43.8623 35.8729 43.8623 31.6402C43.8623 27.4074 40.431 23.9761 36.1982 23.9761C31.9654 23.9761 28.5341 27.4074 28.5341 31.6402C28.5341 35.8729 31.9654 39.3042 36.1982 39.3042Z" fill="white"/>
</g>
<defs>
<clipPath id="clip0">
<rect width="71.9099" height="71.9099" fill="white" transform="translate(0.243225 0.510742)"/>
</clipPath>
</defs>
</svg>
