<svg width="102" height="102" viewBox="0 0 102 102" fill="none" xmlns="http://www.w3.org/2000/svg">
<g clip-path="url(#clip0)">
<path d="M51.3823 0.706055C23.4744 0.706055 0.882324 23.2982 0.882324 51.2061C0.882324 79.114 23.4744 101.706 51.3823 101.706C79.2902 101.706 101.882 79.114 101.882 51.2061C101.882 23.2982 79.2902 0.706055 51.3823 0.706055ZM51.3823 96.3903C26.531 96.3903 6.19811 76.0574 6.19811 51.2061C6.19811 26.3547 26.531 6.02184 51.3823 6.02184C76.3665 6.02184 96.5665 26.3547 96.5665 51.2061C96.5665 76.0574 76.2336 96.3903 51.3823 96.3903Z" fill="black"/>
<path d="M51.3824 16.3877C32.1126 16.3877 16.564 31.9364 16.564 51.2061C16.564 70.4759 32.1126 86.0245 51.3824 86.0245C70.6521 86.0245 86.2008 70.4759 86.2008 51.2061C86.2008 31.9364 70.5192 16.3877 51.3824 16.3877ZM80.7521 48.5482H65.2034C64.8047 46.6877 64.1403 44.8272 63.0771 43.3653L74.1074 32.3351C77.6955 36.8535 80.0876 42.4351 80.7521 48.5482ZM59.2232 39.5114C57.6284 38.4482 55.9008 37.7837 54.0403 37.3851V21.8364C60.1534 22.368 65.735 24.893 70.2534 28.614L59.2232 39.5114ZM48.7245 21.8364V37.3851C46.864 37.7837 45.0034 38.4482 43.5416 39.5114L32.5113 28.614C37.0297 24.893 42.6113 22.368 48.7245 21.8364ZM28.7903 32.3351L39.8205 43.3653C38.7574 44.9601 38.0929 46.6877 37.6942 48.5482H22.0126C22.5442 42.4351 25.0692 36.8535 28.7903 32.3351ZM22.0126 53.864H37.5613C37.96 55.7245 38.6245 57.5851 39.6876 59.0469L28.7903 70.0772C25.0692 65.5587 22.5442 59.9772 22.0126 53.864ZM48.7245 80.5759C42.6113 80.0443 37.0297 77.5193 32.5113 73.7982L43.5416 62.768C45.1363 63.8311 46.864 64.6285 48.7245 64.8943V80.5759ZM48.7245 59.5785C48.3258 59.4456 47.7942 59.1798 47.3955 59.0469C45.8008 58.2495 44.4719 56.9206 43.6745 55.3259C43.4087 54.9272 43.2758 54.3956 43.1429 53.9969C42.8771 53.1995 42.7442 52.2693 42.7442 51.339C42.7442 50.4087 42.8771 49.4785 43.1429 48.6811C43.2758 48.2824 43.5416 47.7509 43.6745 47.3522C44.4719 45.7574 45.8008 44.4285 47.3955 43.6311C47.7942 43.3653 48.3258 43.2324 48.7245 43.0995C49.5219 42.8337 50.4521 42.7009 51.3824 42.7009C52.3126 42.7009 53.2429 42.8337 54.0403 43.0995C54.439 43.2324 54.9705 43.3653 55.3692 43.6311C56.964 44.4285 58.2929 45.7574 59.0903 47.3522C59.3561 47.7509 59.489 48.2824 59.6219 48.6811C59.8876 49.4785 60.0205 50.4087 60.0205 51.339C60.0205 52.2693 59.8876 53.1995 59.6219 53.9969C59.489 54.5285 59.2232 54.9272 59.0903 55.3259C58.2929 56.9206 56.964 58.2495 55.3692 59.0469C54.9705 59.3127 54.439 59.4456 54.0403 59.5785C53.2429 59.8443 52.3126 59.9772 51.3824 59.9772C50.4521 59.9772 49.5219 59.8443 48.7245 59.5785ZM54.0403 80.5759V65.0272C55.9008 64.6285 57.7613 63.964 59.2232 62.9009L70.2534 73.9311C65.735 77.5193 60.1534 80.0443 54.0403 80.5759ZM73.9745 70.0772L62.9442 59.0469C64.0074 57.4522 64.8047 55.7245 65.0705 53.864H80.6192C80.2205 59.9772 77.6955 65.5587 73.9745 70.0772Z" fill="black"/>
</g>
<defs>
<clipPath id="clip0">
<rect width="101" height="101" fill="white" transform="translate(0.882324 0.706055)"/>
</clipPath>
</defs>
</svg>
