<svg width="101" height="102" viewBox="0 0 101 102" fill="none" xmlns="http://www.w3.org/2000/svg">
<g clip-path="url(#clip0)">
<path d="M50.5 0.0390625C39.0586 0.0390625 28.1432 3.86298 19.2005 10.9834C13.4141 15.5985 8.67969 21.4003 5.39193 27.8614C1.84115 34.8499 0 42.7615 0 50.673C0 72.9573 14.2031 92.3406 35.2448 98.9336C37.2174 99.5929 39.3216 100.12 41.2943 100.516C44.319 101.043 47.3437 101.307 50.3685 101.307C56.8125 101.307 62.9935 100.12 68.9115 97.7468C79.1693 93.6592 87.9805 86.2751 93.6354 76.7812C98.3698 68.8696 100.868 59.9032 100.868 50.5412C101 22.7189 78.3802 0.0390625 50.5 0.0390625ZM82.8516 19.0268C81.7995 30.7623 78.2487 38.8057 72.3307 43.1571C69.569 45.135 66.5443 46.3217 62.7305 46.8491C64.5716 41.8385 65.6237 36.3004 65.7552 31.1579C66.0182 22.4552 63.651 13.7524 59.0482 6.10459C68.2539 7.95062 76.5391 12.5657 82.8516 19.0268ZM5.26042 50.673C5.26042 43.5526 6.97005 36.5641 10.1263 30.2348C13.0195 24.433 17.3594 19.1587 22.4883 15.071C30.5104 8.74178 40.2422 5.31344 50.5 5.31344C51.026 5.31344 51.5521 5.31344 52.2096 5.31344C57.8646 12.9613 60.8893 21.9277 60.4948 31.026C60.3633 36.3004 59.0482 42.1022 56.944 47.1128C53.7878 46.981 50.6315 46.5854 47.3437 46.3217C37.2174 45.135 26.6966 43.9482 18.4115 51.5961C15.7812 54.1014 13.6771 57.1342 12.2305 60.6944C9.73177 58.9802 7.36458 57.0023 5.39193 54.6288C5.26042 53.3102 5.26042 51.9916 5.26042 50.673ZM54.3138 52.2554C51.1575 57.3979 46.1602 62.8041 38.138 65.1776C31.2995 67.1555 23.8034 66.4962 16.9648 63.1997C18.1484 60.0351 19.8581 57.3979 22.0937 55.42C28.5378 49.4863 37.4805 50.4093 46.8177 51.4642C49.3164 51.8598 51.8151 52.1235 54.3138 52.2554ZM10.6523 65.8369C10.2578 67.4192 9.99479 69.1334 9.86328 70.8475C8.67969 68.4741 7.75911 65.9687 6.97005 63.3315C8.15365 64.2546 9.33724 65.0457 10.6523 65.8369ZM89.2956 74.144C84.1667 82.7149 76.276 89.3078 67.0703 92.9999C61.8099 95.1096 56.1549 96.1645 50.5 96.1645C47.7383 96.1645 44.9766 95.9008 42.3464 95.3734C40.5052 94.9778 38.6641 94.5822 36.8229 94.0548C28.0117 91.2857 20.6471 86.1432 15.2552 79.2865C14.8607 75.5945 14.8607 71.9024 15.5182 68.4741C20.2526 70.5838 25.3815 71.6387 30.2474 71.6387C33.4036 71.6387 36.5599 71.2431 39.5846 70.3201C48.5273 67.8148 55.6289 61.6174 60.3633 52.3872C66.4128 52.1235 71.2786 50.5412 75.487 47.3766C81.7995 42.7615 85.7448 35.1136 87.5859 24.5649C92.8463 31.949 95.8711 41.0473 95.8711 50.673C95.7396 58.9802 93.5039 67.1555 89.2956 74.144Z" fill="black"/>
</g>
<defs>
<clipPath id="clip0">
<rect width="101" height="101.268" fill="white" transform="translate(0 0.0390625)"/>
</clipPath>
</defs>
</svg>
