<svg width="102" height="102" viewBox="0 0 102 102" fill="none" xmlns="http://www.w3.org/2000/svg">
<g clip-path="url(#clip0)">
<path d="M50.853 5.36896C75.7043 5.36896 96.0372 25.7558 96.0372 50.673C96.0372 75.5903 75.7043 95.9771 50.853 95.9771C26.0017 95.9771 5.66882 75.5903 5.66882 50.673C5.66882 25.7558 26.0017 5.36896 50.853 5.36896ZM50.853 0.0390625C22.9451 0.0390625 0.353027 22.6911 0.353027 50.673C0.353027 78.655 22.9451 101.307 50.853 101.307C78.7609 101.307 101.353 78.655 101.353 50.673C101.353 22.6911 78.7609 0.0390625 50.853 0.0390625Z" fill="black"/>
<path d="M34.9057 80.254C33.5767 80.254 32.3807 79.8543 31.1846 79.0548C29.1912 77.5891 28.2609 75.3239 28.6596 72.9254L31.0517 58.8012C31.0517 58.5347 31.0517 58.135 30.7859 58.0017L20.553 48.0082C18.8254 46.2759 18.1609 43.8775 18.9583 41.479C19.7557 39.2138 21.6162 37.4816 24.0083 37.2151L38.0951 35.2164C38.3609 35.2164 38.6267 34.9499 38.8925 34.6834L45.1386 21.8917C46.2017 19.7597 48.328 18.4272 50.7201 18.4272C53.1123 18.4272 55.2386 19.7597 56.3017 21.8917L62.8136 34.6834C62.9465 34.9499 63.2122 35.2164 63.6109 35.2164L77.6978 37.2151C80.0899 37.6149 82.0833 39.2138 82.7478 41.479C83.4122 43.7442 82.8807 46.2759 81.153 48.0082L70.9201 58.0017C70.6544 58.2682 70.5215 58.5347 70.6544 58.8012L73.0465 72.9254C73.4451 75.3239 72.5149 77.7223 70.5215 79.0548C68.528 80.5205 66.003 80.6538 63.8767 79.5878L51.2517 72.9254C50.9859 72.7922 50.5872 72.7922 50.3215 72.9254L37.6965 79.5878C36.8991 80.1208 35.8359 80.254 34.9057 80.254ZM50.853 23.7571C50.5872 23.7571 50.1886 23.8904 49.9228 24.2901L43.6767 37.0819C42.7465 38.9473 41.0188 40.2798 38.8925 40.5463L24.8057 42.545C24.2741 42.6783 24.1412 42.9448 24.0083 43.2113C23.8754 43.4777 23.8754 43.8775 24.2741 44.2772L34.507 54.2708C35.9688 55.7365 36.6333 57.8685 36.3675 59.8672L33.9754 73.9914C33.8425 74.5244 34.2412 74.7909 34.3741 74.9241C34.507 75.0574 34.9057 75.1906 35.4373 75.0574L48.0623 68.395C49.9228 67.4623 52.0491 67.4623 53.9096 68.395L66.5346 75.0574C67.0662 75.3239 67.332 75.0574 67.5978 74.9241C67.7307 74.7909 68.1294 74.5244 67.9965 73.9914L65.6044 59.8672C65.2057 57.8685 65.8701 55.7365 67.4649 54.2708L77.6978 44.2772C78.0965 43.8775 77.9636 43.4777 77.9636 43.2113C77.8307 42.9448 77.6978 42.6783 77.1662 42.545L62.8136 40.5463C60.8201 40.2798 58.9596 38.9473 58.0294 37.0819L51.7833 24.2901C51.5175 23.7571 51.1188 23.7571 50.853 23.7571Z" fill="black"/>
</g>
<defs>
<clipPath id="clip0">
<rect width="101" height="101.268" fill="white" transform="translate(0.353027 0.0390625)"/>
</clipPath>
</defs>
</svg>
