<svg width="110" height="111" viewBox="0 0 110 111" fill="none" xmlns="http://www.w3.org/2000/svg">
<g clip-path="url(#clip0)">
<path d="M92.0377 31.5831L88.319 35.3255C92.9673 42.5428 95.6235 51.0967 95.6235 60.1852C95.6235 85.1786 75.3035 105.628 50.468 105.628C25.6324 105.628 5.31242 85.1786 5.31242 60.1852C5.31242 35.0582 25.6324 14.7427 50.468 14.7427C59.4991 14.7427 67.999 17.4158 75.1707 22.0937L79.0222 18.2177C70.788 12.6042 60.96 9.39648 50.468 9.39648C22.7106 9.39648 0 32.1178 0 60.1852C0 88.119 22.7106 110.974 50.468 110.974C78.2254 110.974 100.936 88.119 100.936 60.1852C100.936 49.6265 97.7485 39.7361 92.0377 31.5831Z" fill="black"/>
<path d="M83.8033 39.8696L79.9518 43.7456C82.608 48.5571 84.2018 54.3043 84.2018 60.1851C84.2018 78.8967 69.0614 94.1333 50.4679 94.1333C31.8744 94.1333 16.734 78.8967 16.734 60.1851C16.734 41.4734 31.8744 26.2368 50.4679 26.2368C56.4444 26.2368 62.0224 27.8407 66.8036 30.5138L70.6551 26.6378C64.8114 23.0291 57.7725 20.8906 50.4679 20.8906C28.9526 20.8906 11.4216 38.533 11.4216 60.1851C11.4216 81.8371 28.9526 99.4795 50.4679 99.4795C71.9832 99.4795 89.5142 81.8371 89.5142 60.1851C89.5142 52.7004 87.522 45.7504 83.8033 39.8696Z" fill="black"/>
<path d="M74.2409 49.3589L70.1238 53.5022C70.7879 55.6407 71.1863 57.7792 71.1863 60.1849C71.1863 71.6792 61.8896 81.1687 50.3351 81.1687C38.7805 81.1687 29.4838 71.8129 29.4838 60.1849C29.4838 48.6906 38.7805 39.2012 50.3351 39.2012C52.5928 39.2012 54.8506 39.6021 56.9756 40.2704L61.0927 36.1271C57.7724 34.6569 54.1866 33.855 50.4679 33.855C36.1243 33.855 24.3042 45.6166 24.3042 60.1849C24.3042 74.6196 35.9915 86.5149 50.4679 86.5149C64.9442 86.5149 76.6315 74.7533 76.6315 60.1849C76.6315 56.309 75.8347 52.7003 74.2409 49.3589Z" fill="black"/>
<path d="M109.436 9.93102L101.069 18.3513C100.936 18.4849 100.803 18.4849 100.67 18.4849H95.4907L87.9205 26.1032L84.2018 29.9792L79.8191 34.3898L76.1004 38.1321L70.6552 43.612L66.9365 47.3543L52.3273 62.0563C51.7961 62.5909 51.132 62.8582 50.468 62.8582C49.8039 62.8582 49.1399 62.5909 48.6086 62.0563C47.5461 60.9871 47.5461 59.3832 48.6086 58.314L63.2178 43.612L66.9365 39.736L72.3817 34.2561L76.1004 30.5138L80.4831 26.1032L84.2018 22.3609L91.6392 14.8762V9.66371C91.6392 9.53005 91.772 9.26274 91.772 9.26274L100.272 0.70885C100.405 0.70885 100.405 0.575195 100.538 0.575195C100.67 0.575195 100.67 0.575195 100.803 0.575195C100.936 0.575195 100.936 0.575195 101.069 0.575195C101.334 0.70885 101.467 0.976159 101.467 1.24347V8.86178H108.905C109.17 8.86178 109.436 8.99543 109.569 9.26274C109.701 9.53005 109.569 9.79736 109.436 9.93102Z" fill="black"/>
</g>
<defs>
<clipPath id="clip0">
<rect width="109.569" height="110.399" fill="white" transform="translate(0 0.575195)"/>
</clipPath>
</defs>
</svg>
