<svg width="133" height="57" viewBox="0 0 133 57" fill="none" xmlns="http://www.w3.org/2000/svg">
<path fill-rule="evenodd" clip-rule="evenodd" d="M101.111 0.388184V7.75553H91.7776V55.8372H83.9998V7.75553H74.6665V0.388184H101.111Z" fill="white"/>
<path fill-rule="evenodd" clip-rule="evenodd" d="M52.5005 15.1225C52.5005 20.551 55.2227 21.3265 59.8893 22.8776C69.2227 26.3673 71.9449 30.6327 72.3338 40.3265C72.7227 49.2449 68.056 56.6123 58.7227 56.6123C54.056 56.6123 50.556 54.6735 48.2227 51.1837C45.5005 47.3061 45.5005 44.2041 45.1116 39.9388H52.5005C52.5005 42.2653 52.5005 44.5918 54.056 46.5306C55.2227 48.0816 56.3893 48.8571 58.7227 48.8571C63.7782 48.8571 64.9449 44.9796 64.9449 40.3265C64.556 33.7347 63.7782 32.1837 57.556 29.8571C49.7782 27.1429 45.5005 23.6531 45.5005 14.3469C45.5005 6.20408 49.0005 0 58.3338 0C70.0005 0 71.556 6.97959 72.3338 16.2857H64.556C64.1671 11.6327 64.9449 7.7551 58.3338 7.7551C54.056 7.7551 52.5005 11.2449 52.5005 15.1225Z" fill="white"/>
<path fill-rule="evenodd" clip-rule="evenodd" d="M124.444 30.2453L133 55.8372H125.222L117.444 32.1841C116.667 32.1841 115.5 32.1841 114.722 32.1841H112.778V55.4494H105V0.388184H110.833H112.778H114.722C116.667 0.388184 118.611 0.388184 120.556 1.16369C125.222 2.32696 129.5 6.20451 130.278 11.2453C130.667 12.4086 130.667 13.9596 130.667 15.1229V15.5106C130.667 15.8984 130.667 15.8984 130.667 16.2861C130.667 16.6739 130.667 16.6739 130.667 17.0617V17.4494C130.667 18.6127 130.667 20.1637 130.278 21.327C129.889 25.2045 127.556 28.3066 124.444 30.2453ZM112.778 25.2045H116.667C119.778 25.2045 122.5 24.0413 123.278 20.5515C123.278 19.7759 123.667 18.2249 123.667 16.6739C123.667 15.1229 123.667 13.5719 123.278 12.7963C122.5 8.9188 119.778 8.14329 116.667 8.14329H112.778V25.2045Z" fill="white"/>
<path fill-rule="evenodd" clip-rule="evenodd" d="M24.5 13.9596C26.8333 19.7759 28 25.98 28 32.1841C28 40.7147 26.0556 48.4698 22.1667 55.4494H0V0.388184H8.94444C15.1667 3.87798 20.2222 8.53104 24.5 13.9596Z" fill="white"/>
<path fill-rule="evenodd" clip-rule="evenodd" d="M37.3333 0.388184V55.8372H33.0555C33.8333 51.9596 34.611 48.0821 34.611 44.2045C34.611 32.9596 31.111 22.4902 24.8888 14.3474C22.5555 8.9188 19.8333 4.26574 16.3333 0.388184H37.3333Z" fill="white"/>
</svg>
