<svg width="71" height="71" viewBox="0 0 71 71" fill="none" xmlns="http://www.w3.org/2000/svg">
<g clip-path="url(#clip0)">
<path d="M35.5516 0.290527C27.5848 0.290527 19.9843 2.95318 13.7573 7.91123C9.72811 11.1248 6.43149 15.1647 4.14218 19.6636C1.66971 24.5299 0.387695 30.0388 0.387695 35.5478C0.387695 51.0646 10.2775 64.5615 24.9292 69.1523C26.3028 69.6114 27.7679 69.9786 29.1415 70.2541C31.2477 70.6213 33.3539 70.805 35.46 70.805C39.9471 70.805 44.251 69.9786 48.3718 68.326C55.5145 65.4797 61.6498 60.338 65.5875 53.7273C68.8841 48.2183 70.624 41.9748 70.624 35.4559C70.7155 16.0828 54.965 0.290527 35.5516 0.290527ZM58.0785 13.512C57.3459 21.6836 54.8735 27.2843 50.7527 30.3143C48.8297 31.6915 46.7235 32.5178 44.0679 32.8851C45.3499 29.3961 46.0825 25.5398 46.1741 21.959C46.3572 15.8992 44.7089 9.83936 41.5038 4.51405C47.9139 5.79947 53.683 9.01302 58.0785 13.512ZM4.0506 35.5478C4.0506 30.5897 5.24105 25.7235 7.43879 21.3163C9.45339 17.2764 12.4753 13.6038 16.0466 10.7575C21.6326 6.35036 28.4089 3.96315 35.5516 3.96315C35.9179 3.96315 36.2842 3.96315 36.7421 3.96315C40.6797 9.28846 42.7859 15.5319 42.5111 21.8672C42.4196 25.5398 41.5038 29.5797 40.0387 33.0687C37.8409 32.9769 35.6432 32.7015 33.3539 32.5178C26.3028 31.6915 18.977 30.8651 13.2079 36.1905C11.3764 37.935 9.91126 40.0467 8.90396 42.5257C7.16408 41.3321 5.51577 39.9549 4.14218 38.3022C4.0506 37.3841 4.0506 36.4659 4.0506 35.5478ZM38.2072 36.6495C36.0095 40.2304 32.5297 43.9948 26.9438 45.6475C22.182 47.0247 16.9624 46.5656 12.2006 44.2702C13.0247 42.0667 14.2152 40.2304 15.7719 38.8531C20.259 34.7214 26.4859 35.3641 32.9876 36.0986C34.7275 36.3741 36.4673 36.5577 38.2072 36.6495ZM7.80509 46.1066C7.53037 47.2083 7.34722 48.4019 7.25565 49.5956C6.43149 47.9429 5.79049 46.1984 5.24105 44.3621C6.0652 45.0048 6.88936 45.5557 7.80509 46.1066ZM62.5656 51.8909C58.9942 57.859 53.4999 62.4497 47.0898 65.0206C43.4269 66.4896 39.4892 67.2242 35.5516 67.2242C33.6286 67.2242 31.7056 67.0405 29.8741 66.6733C28.5921 66.3978 27.3101 66.1224 26.0281 65.7551C19.8927 63.827 14.7646 60.2462 11.0101 55.4718C10.7354 52.9009 10.7354 50.3301 11.1933 47.9429C14.4899 49.4119 18.0612 50.1464 21.4494 50.1464C23.6472 50.1464 25.8449 49.871 27.9511 49.2283C34.178 47.4838 39.123 43.1685 42.4196 36.7414C46.6319 36.5577 50.0201 35.4559 52.9504 33.2524C57.3459 30.0388 60.0931 24.7135 61.3751 17.3682C65.038 22.5099 67.1442 28.8452 67.1442 35.5478C67.0526 41.3321 65.4959 47.0247 62.5656 51.8909Z" fill="#D32020"/>
</g>
<defs>
<clipPath id="clip0">
<rect width="70.3279" height="70.5145" fill="white" transform="translate(0.387695 0.290527)"/>
</clipPath>
</defs>
</svg>
