<svg width="72" height="72" viewBox="0 0 72 72" fill="none" xmlns="http://www.w3.org/2000/svg">
<g clip-path="url(#clip0)">
<path d="M35.9343 4.58447C53.221 4.58447 67.3647 18.7657 67.3647 36.0984C67.3647 53.431 53.221 67.6123 35.9343 67.6123C18.6475 67.6123 4.50385 53.431 4.50385 36.0984C4.50385 18.7657 18.6475 4.58447 35.9343 4.58447ZM35.9343 0.876953C16.5214 0.876953 0.806152 16.6339 0.806152 36.0984C0.806152 55.5628 16.5214 71.3198 35.9343 71.3198C55.3472 71.3198 71.0624 55.5628 71.0624 36.0984C71.0624 16.6339 55.3472 0.876953 35.9343 0.876953Z" fill="#D32020"/>
<path d="M24.8411 56.6757C23.9167 56.6757 23.0847 56.3976 22.2527 55.8415C20.8661 54.8219 20.219 53.2462 20.4963 51.5778L22.1603 41.7529C22.1603 41.5675 22.1603 41.2895 21.9754 41.1968L14.8573 34.2452C13.6556 33.0402 13.1934 31.3719 13.748 29.7035C14.3027 28.1278 15.5969 26.9228 17.2608 26.7375L27.0597 25.3471C27.2446 25.3471 27.4295 25.1618 27.6144 24.9764L31.9592 16.0783C32.6987 14.5953 34.1778 13.6685 35.8417 13.6685C37.5057 13.6685 38.9848 14.5953 39.7243 16.0783L44.254 24.9764C44.3464 25.1618 44.5313 25.3471 44.8087 25.3471L54.6076 26.7375C56.2715 27.0155 57.6581 28.1278 58.1204 29.7035C58.5826 31.2792 58.2128 33.0402 57.0111 34.2452L49.893 41.1968C49.7081 41.3822 49.6157 41.5675 49.7081 41.7529L51.3721 51.5778C51.6494 53.2462 51.0023 54.9146 49.6157 55.8415C48.229 56.861 46.4726 56.9537 44.9935 56.2122L36.2115 51.5778C36.0266 51.4851 35.7493 51.4851 35.5644 51.5778L26.7824 56.2122C26.2277 56.583 25.4882 56.6757 24.8411 56.6757ZM35.9342 17.376C35.7493 17.376 35.472 17.4687 35.2871 17.7467L30.9423 26.6448C30.2952 27.9424 29.0934 28.8693 27.6144 29.0547L17.8155 30.445C17.4457 30.5377 17.3533 30.723 17.2608 30.9084C17.1684 31.0938 17.1684 31.3719 17.4457 31.6499L24.5638 38.6015C25.5806 39.6211 26.0428 41.1041 25.858 42.4944L24.194 52.3193C24.1016 52.6901 24.3789 52.8755 24.4713 52.9681C24.5638 53.0608 24.8411 53.1535 25.2109 53.0608L33.9929 48.4264C35.2871 47.7776 36.7662 47.7776 38.0604 48.4264L46.8424 53.0608C47.2122 53.2462 47.397 53.0608 47.5819 52.9681C47.6744 52.8755 47.9517 52.6901 47.8593 52.3193L46.1953 42.4944C45.918 41.1041 46.3802 39.6211 47.4895 38.6015L54.6076 31.6499C54.8849 31.3719 54.7924 31.0938 54.7924 30.9084C54.7 30.723 54.6076 30.5377 54.2378 30.445L44.254 29.0547C42.8674 28.8693 41.5732 27.9424 40.9261 26.6448L36.5813 17.7467C36.3964 17.376 36.1191 17.376 35.9342 17.376Z" fill="#D32020"/>
</g>
<defs>
<clipPath id="clip0">
<rect width="70.2562" height="70.4428" fill="white" transform="translate(0.806152 0.876953)"/>
</clipPath>
</defs>
</svg>
