<svg width="73" height="73" viewBox="0 0 73 73" fill="none" xmlns="http://www.w3.org/2000/svg">
<g clip-path="url(#clip0)">
<path d="M36.5904 4.29547C54.284 4.29547 68.7606 18.7721 68.7606 36.4657C68.7606 54.1593 54.284 68.6359 36.5904 68.6359C18.8967 68.6359 4.42015 54.1593 4.42015 36.4657C4.42015 18.7721 18.8967 4.29547 36.5904 4.29547ZM36.5904 0.510742C16.7205 0.510742 0.635414 16.5958 0.635414 36.4657C0.635414 56.3355 16.7205 72.4206 36.5904 72.4206C56.4602 72.4206 72.5453 56.3355 72.5453 36.4657C72.5453 16.5958 56.4602 0.510742 36.5904 0.510742Z" fill="#D32020"/>
<path d="M60.1503 28.5177L40.0912 37.0334L48.7015 45.1706C49.4584 45.9275 49.4584 47.0629 48.7961 47.8199C48.4176 48.1984 47.9445 48.3876 47.3768 48.3876C46.9037 48.3876 46.4307 48.1984 46.0522 47.9145L37.1581 39.4935C36.9688 39.5881 36.7796 39.5881 36.4957 39.5881C34.7926 39.5881 33.3733 38.1688 33.3733 36.4657C33.3733 34.7626 34.7926 33.3433 36.4957 33.3433C37.0634 33.3433 37.5365 33.5325 38.0096 33.7218L58.6364 24.9223C59.5826 24.5438 60.718 24.9223 61.0965 25.9631C61.5696 27.0039 61.1911 28.0447 60.1503 28.5177Z" fill="#D32020"/>
<path d="M56.5548 57.8495C56.1763 57.8495 55.7979 57.7548 55.514 57.471L53.0539 55.0109C52.4862 54.4432 52.4862 53.5916 53.0539 53.0239C53.6217 52.4562 54.4732 52.4562 55.0409 53.0239L57.501 55.484C58.0687 56.0517 58.0687 56.9033 57.501 57.471C57.3118 57.7548 56.9333 57.8495 56.5548 57.8495Z" fill="#D32020"/>
<path d="M18.9914 20.286C18.6129 20.286 18.2344 20.1914 17.9506 19.9075L15.4905 17.4474C14.9228 16.8797 14.9228 16.0282 15.4905 15.4605C16.0582 14.8927 16.9098 14.8927 17.4775 15.4605L19.9375 17.9205C20.5053 18.4882 20.5053 19.3398 19.9375 19.9075C19.7483 20.1914 19.3698 20.286 18.9914 20.286Z" fill="#D32020"/>
<path d="M16.6259 57.8495C16.2474 57.8495 15.869 57.7548 15.5851 57.471C15.0174 56.9033 15.0174 56.0517 15.5851 55.484L18.0452 53.0239C18.6129 52.4562 19.4644 52.4562 20.0322 53.0239C20.5999 53.5916 20.5999 54.4432 20.0322 55.0109L17.5721 57.471C17.2882 57.7548 17.0044 57.8495 16.6259 57.8495Z" fill="#D32020"/>
<path d="M54.1894 20.286C53.8109 20.286 53.4324 20.1914 53.1486 19.9075C52.5809 19.3398 52.5809 18.4882 53.1486 17.9205L55.6086 15.4605C56.1764 14.8927 57.0279 14.8927 57.5956 15.4605C58.1633 16.0282 58.1633 16.8797 57.5956 17.4474L55.1356 19.9075C54.8517 20.1914 54.4732 20.286 54.1894 20.286Z" fill="#D32020"/>
<path d="M16.8151 37.6955H8.11026C7.35331 37.6955 6.69099 37.0332 6.69099 36.2762C6.69099 35.5193 7.35331 34.8569 8.11026 34.8569H16.7205C17.4775 34.8569 18.1398 35.5193 18.1398 36.2762C18.1398 37.0332 17.5721 37.6955 16.8151 37.6955Z" fill="#D32020"/>
<path d="M65.0705 37.6955H56.4602C55.7033 37.6955 55.0409 37.0332 55.0409 36.2762C55.0409 35.5193 55.7033 34.8569 56.4602 34.8569H65.0705C65.8274 34.8569 66.4897 35.5193 66.4897 36.2762C66.4897 37.0332 65.8274 37.6955 65.0705 37.6955Z" fill="#D32020"/>
<path d="M36.5904 66.0811C35.8334 66.0811 35.1711 65.4188 35.1711 64.6619V56.0516C35.1711 55.2947 35.8334 54.6323 36.5904 54.6323C37.3473 54.6323 38.0096 55.2947 38.0096 56.0516V64.6619C38.0096 65.5134 37.3473 66.0811 36.5904 66.0811Z" fill="#D32020"/>
<path d="M36.5904 17.8258C35.8334 17.8258 35.1711 17.1634 35.1711 16.4065V7.79623C35.1711 7.03928 35.8334 6.37695 36.5904 6.37695C37.3473 6.37695 38.0096 7.03928 38.0096 7.79623V16.4065C38.0096 17.2581 37.3473 17.8258 36.5904 17.8258Z" fill="#D32020"/>
</g>
<defs>
<clipPath id="clip0">
<rect width="71.9099" height="71.9099" fill="white" transform="translate(0.635414 0.510742)"/>
</clipPath>
</defs>
</svg>
